#Comment line ignore any data following # character 
#Hierarchical Translation and Rotation (.htr) file 
[Header]	
#Header keywords are followed by a single value 
FileType HTR		#Single word string
DataType HTRS		#Translation followed by rotation and scale data
FileVersion 1		#integer
NumSegments 64		#integer
NumFrames 3		#integer
DataFrameRate 30		#integer, data frame rate in this file
EulerRotationOrder ZYX
CalibrationUnits mm
RotationUnits Degrees
GlobalAxisofGravity Y
BoneLengthAxis Y
ScaleFactor 1.00
[SegmentNames&Hierarchy]
#CHILD	PARENT
Pinger_Root GLOBAL
Pelvis Pinger_Root
L_Hip Pelvis
R_Hip Pelvis
Rear_Leg01 Pelvis
Spine1 Pelvis
L_Leg01 L_Hip
L_Leg02 L_Leg01
L_Leg03 L_Leg02
L_Foot L_Leg03
L_Toe1_01 L_Foot
L_Toe2_01 L_Foot
L_Toe3_01 L_Foot
planeAlignerLeft L_Foot
L_Toe1_02 L_Toe1_01
L_Toe1_03 L_Toe1_02
L_Toe2_02 L_Toe2_01
L_Toe2_03 L_Toe2_02
L_Toe3_02 L_Toe3_01
L_Toe3_03 L_Toe3_02
planeLockWeightLeft planeAlignerLeft
R_Leg01 R_Hip
R_Leg02 R_Leg01
R_Leg03 R_Leg02
R_Foot R_Leg03
planeAlignerRight R_Foot
R_Toe1_01 R_Foot
R_Toe2_01 R_Foot
R_Toe3_01 R_Foot
planeLockWeightRight planeAlignerRight
R_Toe1_02 R_Toe1_01
R_Toe1_03 R_Toe1_02
R_Toe2_02 R_Toe2_01
R_Toe2_03 R_Toe2_02
R_Toe3_02 R_Toe3_01
R_Toe3_03 R_Toe3_02
Rear_Leg02 Rear_Leg01
Rear_Leg03 Rear_Leg02
Rear_Leg04 Rear_Leg03
Rear_Foot Rear_Leg04
planeAlignerCenter Rear_Foot
Rear_Toe1_01 Rear_Foot
Rear_Toe2_01 Rear_Foot
Rear_Toe3_01 Rear_Foot
planeLockWeightCenter planeAlignerCenter
Rear_Toe1_02 Rear_Toe1_01
Rear_Toe1_03 Rear_Toe1_02
Rear_Toe2_02 Rear_Toe2_01
Rear_Toe2_03 Rear_Toe2_02
Rear_Toe3_02 Rear_Toe3_01
Rear_Toe3_03 Rear_Toe3_02
Back_Bone Spine1
Head Spine1
Motor_Bone Back_Bone
Ping_Mechanism Back_Bone
BN_LookIK Head
bottomMouth Head
L_Mouth01 Head
L_mouthFront Head
mouthGun Head
R_Mouth01 Head
R_mouthFront Head
TopMouth Head
weapon_bone Head
[BasePosition]
#SegmentName Tx, Ty, Tz, Rx, Ry, Rz, BoneLength
Pinger_Root 0.000000 0.000000 0.000000 -90.000000 0.000000 0.000000 10.000000 
Pelvis 0.000000 0.000000 0.000000 0.000000 0.000000 0.000000 10.000000 
L_Hip 0.000000 0.000000 0.000000 0.000000 0.000000 0.000000 10.000000 
R_Hip 0.000000 0.000000 0.000000 0.000000 0.000000 0.000000 10.000000 
Rear_Leg01 0.000000 0.000000 0.000000 0.000000 0.000000 0.000000 10.000000 
Spine1 0.000000 0.000000 0.000000 0.000000 0.000000 0.000000 10.000000 
L_Leg01 0.000000 0.000000 0.000000 0.000000 0.000000 0.000000 10.000000 
L_Leg02 0.000000 0.000000 0.000000 0.000000 0.000000 0.000000 10.000000 
L_Leg03 0.000000 0.000000 0.000000 0.000000 0.000000 0.000000 10.000000 
L_Foot 0.000000 0.000000 0.000000 0.000000 0.000000 0.000000 10.000000 
L_Toe1_01 0.000000 0.000000 0.000000 0.000000 0.000000 0.000000 10.000000 
L_Toe2_01 0.000000 0.000000 0.000000 0.000000 0.000000 0.000000 10.000000 
L_Toe3_01 0.000000 0.000000 0.000000 0.000000 0.000000 0.000000 10.000000 
planeAlignerLeft 0.000000 0.000000 0.000000 0.000000 0.000000 0.000000 10.000000 
L_Toe1_02 0.000000 0.000000 0.000000 0.000000 0.000000 0.000000 10.000000 
L_Toe1_03 0.000000 0.000000 0.000000 0.000000 0.000000 0.000000 10.000000 
L_Toe2_02 0.000000 0.000000 0.000000 0.000000 0.000000 0.000000 10.000000 
L_Toe2_03 0.000000 0.000000 0.000000 0.000000 0.000000 0.000000 10.000000 
L_Toe3_02 0.000000 0.000000 0.000000 0.000000 0.000000 0.000000 10.000000 
L_Toe3_03 0.000000 0.000000 0.000000 0.000000 0.000000 0.000000 10.000000 
planeLockWeightLeft 0.000000 0.000000 0.000000 0.000000 0.000000 0.000000 10.000000 
R_Leg01 0.000000 0.000000 0.000000 0.000000 0.000000 0.000000 10.000000 
R_Leg02 0.000000 0.000000 0.000000 0.000000 0.000000 0.000000 10.000000 
R_Leg03 0.000000 0.000000 0.000000 0.000000 0.000000 0.000000 10.000000 
R_Foot 0.000000 0.000000 0.000000 0.000000 0.000000 0.000000 10.000000 
planeAlignerRight 0.000000 0.000000 0.000000 0.000000 0.000000 0.000000 10.000000 
R_Toe1_01 0.000000 0.000000 0.000000 0.000000 0.000000 0.000000 10.000000 
R_Toe2_01 0.000000 0.000000 0.000000 0.000000 0.000000 0.000000 10.000000 
R_Toe3_01 0.000000 0.000000 0.000000 0.000000 0.000000 0.000000 10.000000 
planeLockWeightRight 0.000000 0.000000 0.000000 0.000000 0.000000 0.000000 10.000000 
R_Toe1_02 0.000000 0.000000 0.000000 0.000000 0.000000 0.000000 10.000000 
R_Toe1_03 0.000000 0.000000 0.000000 0.000000 0.000000 0.000000 10.000000 
R_Toe2_02 0.000000 0.000000 0.000000 0.000000 0.000000 0.000000 10.000000 
R_Toe2_03 0.000000 0.000000 0.000000 0.000000 0.000000 0.000000 10.000000 
R_Toe3_02 0.000000 0.000000 0.000000 0.000000 0.000000 0.000000 10.000000 
R_Toe3_03 0.000000 0.000000 0.000000 0.000000 0.000000 0.000000 10.000000 
Rear_Leg02 0.000000 0.000000 0.000000 0.000000 0.000000 0.000000 10.000000 
Rear_Leg03 0.000000 0.000000 0.000000 0.000000 0.000000 0.000000 10.000000 
Rear_Leg04 0.000000 0.000000 0.000000 0.000000 0.000000 0.000000 10.000000 
Rear_Foot 0.000000 0.000000 0.000000 0.000000 0.000000 0.000000 10.000000 
planeAlignerCenter 0.000000 0.000000 0.000000 0.000000 0.000000 0.000000 10.000000 
Rear_Toe1_01 0.000000 0.000000 0.000000 0.000000 0.000000 0.000000 10.000000 
Rear_Toe2_01 0.000000 0.000000 0.000000 0.000000 0.000000 0.000000 10.000000 
Rear_Toe3_01 0.000000 0.000000 0.000000 0.000000 0.000000 0.000000 10.000000 
planeLockWeightCenter 0.000000 0.000000 0.000000 0.000000 0.000000 0.000000 10.000000 
Rear_Toe1_02 0.000000 0.000000 0.000000 0.000000 0.000000 0.000000 10.000000 
Rear_Toe1_03 0.000000 0.000000 0.000000 0.000000 0.000000 0.000000 10.000000 
Rear_Toe2_02 0.000000 0.000000 0.000000 0.000000 0.000000 0.000000 10.000000 
Rear_Toe2_03 0.000000 0.000000 0.000000 0.000000 0.000000 0.000000 10.000000 
Rear_Toe3_02 0.000000 0.000000 0.000000 0.000000 0.000000 0.000000 10.000000 
Rear_Toe3_03 0.000000 0.000000 0.000000 0.000000 0.000000 0.000000 10.000000 
Back_Bone 0.000000 0.000000 0.000000 0.000000 0.000000 0.000000 10.000000 
Head 0.000000 0.000000 0.000000 0.000000 0.000000 0.000000 10.000000 
Motor_Bone 0.000000 0.000000 0.000000 0.000000 0.000000 0.000000 10.000000 
Ping_Mechanism 0.000000 0.000000 0.000000 0.000000 0.000000 0.000000 10.000000 
BN_LookIK 0.000000 0.000000 0.000000 0.000000 0.000000 0.000000 10.000000 
bottomMouth 0.000000 0.000000 0.000000 0.000000 0.000000 0.000000 10.000000 
L_Mouth01 0.000000 0.000000 0.000000 0.000000 0.000000 0.000000 10.000000 
L_mouthFront 0.000000 0.000000 0.000000 0.000000 0.000000 0.000000 10.000000 
mouthGun 0.000000 0.000000 0.000000 0.000000 0.000000 0.000000 10.000000 
R_Mouth01 0.000000 0.000000 0.000000 0.000000 0.000000 0.000000 10.000000 
R_mouthFront 0.000000 0.000000 0.000000 0.000000 0.000000 0.000000 10.000000 
TopMouth 0.000000 0.000000 0.000000 0.000000 0.000000 0.000000 10.000000 
weapon_bone 0.000000 0.000000 0.000000 0.000000 0.000000 0.000000 10.000000 
#Beginning of Data. Separated by tabs
#Fr	Tx	Ty	Tz	Rx	Ry	Rz	SF
[Pinger_Root]
126 0.000000 0.000000 0.000000 -0.000075 -0.000000 -0.000020 0.000000
127 0.000000 0.000000 0.000000 -0.000075 -0.000000 -0.000020 0.000000
128 0.000000 0.000000 0.000000 -0.000075 -0.000000 -0.000020 0.000000
[Pelvis]
126 120.831985 916.536316 4546.076660 94.020409 -79.590981 -101.546547 4639.122070
127 117.941521 916.536316 4568.650879 94.582741 -80.828728 -102.119453 4661.171387
128 113.659882 916.536316 4581.094238 95.706635 -82.652519 -103.252281 4673.262695
[L_Hip]
126 5.766392 125.831482 872.656799 160.158691 -45.484894 122.312187 881.701050
127 5.766392 125.831482 872.656799 160.158691 -45.484905 122.312202 881.701050
128 5.766392 125.831482 872.656799 160.158691 -45.484913 122.312202 881.701050
[R_Hip]
126 5.765438 125.836372 -872.654907 38.087826 49.812679 125.703735 881.699829
127 5.765438 125.836372 -872.654907 38.087841 49.812687 125.703735 881.699829
128 5.765438 125.836372 -872.654907 38.087837 49.812698 125.703735 881.699829
[Rear_Leg01]
126 -192.298416 -925.602966 -0.001907 169.517166 1.309352 -143.706802 945.367432
127 -192.298416 -925.602966 -0.001907 169.524261 1.319861 -145.377167 945.367432
128 -192.298416 -925.602966 -0.001907 169.539200 1.352558 -147.658020 945.367432
[Spine1]
126 290.604584 5.007505 0.000477 7.265492 -0.617067 33.617702 290.647736
127 290.604584 5.007505 0.000477 7.263945 -0.618225 32.371765 290.647736
128 290.604584 5.007505 0.000477 7.266793 -0.618284 30.538671 290.647736
[L_Leg01]
126 761.932007 -0.002384 -0.069261 33.103146 -4.186978 -31.767862 761.932068
127 761.932007 -0.002384 -0.069261 32.473152 -4.774639 -31.324638 761.932068
128 761.932007 -0.002384 -0.069261 31.503162 -6.044518 -29.688610 761.932068
[L_Leg02]
126 1441.140503 -0.000954 -0.000715 0.789467 -0.092922 -111.214363 1441.140503
127 1441.140503 -0.000954 -0.000715 0.713486 -0.093893 -110.469963 1441.140503
128 1441.140503 -0.000954 -0.000715 0.764624 -0.095393 -111.004890 1441.140503
[L_Leg03]
126 1686.963989 -0.000715 -0.000954 -0.020794 0.008340 115.748428 1686.963989
127 1686.963989 -0.000715 -0.000954 -0.020795 0.008337 115.733810 1686.963989
128 1686.963989 -0.000715 -0.000954 -0.020796 0.008334 115.719269 1686.963989
[L_Foot]
126 3041.570068 -30.715107 11.297464 1.304944 13.635043 52.287586 3041.746094
127 3041.570068 -30.715107 11.297464 1.370539 13.638162 52.090950 3041.746094
128 3041.570068 -30.715107 11.297464 1.451890 13.629206 52.155983 3041.746094
[L_Toe1_01]
126 -188.216690 -224.732346 -21.137953 93.719284 -6.947159 -172.009735 293.899567
127 -188.216690 -224.732346 -21.137953 93.719276 -6.943128 -172.007874 293.899567
128 -188.216690 -224.732346 -21.137953 93.719269 -6.939097 -172.006012 293.899567
[L_Toe2_01]
126 200.746536 -219.926590 148.838394 -90.030739 -26.350044 -52.649929 332.896027
127 200.746536 -219.926590 148.838394 -90.030586 -26.349110 -52.650604 332.896027
128 200.746536 -219.926590 148.838394 -90.030426 -26.348179 -52.651291 332.896027
[L_Toe3_01]
126 188.832520 -219.859131 -191.078659 -99.788055 13.839008 -67.673027 347.140900
127 188.832520 -219.859131 -191.078659 -99.788055 13.839008 -67.673027 347.140900
128 188.832520 -219.859131 -191.078659 -99.788055 13.839008 -67.673027 347.140900
[planeAlignerLeft]
126 0.812531 -811.448792 -0.314951 0.000000 -90.000000 -90.001900 811.449280
127 0.812531 -811.448792 -0.314951 0.000000 -90.000000 -90.001900 811.449280
128 0.812531 -811.448792 -0.314951 0.000000 -90.000000 -90.001900 811.449280
[L_Toe1_02]
126 413.761139 0.000477 0.000000 0.000203 -25.410625 -0.000182 413.761139
127 413.761139 0.000477 0.000000 0.000203 -25.410625 -0.000182 413.761139
128 413.761139 0.000477 0.000000 0.000203 -25.410625 -0.000182 413.761139
[L_Toe1_03]
126 464.317322 0.000358 -0.000089 0.003733 53.353565 0.003733 464.317322
127 464.317322 0.000358 -0.000089 0.003733 53.353699 0.003733 464.317322
128 464.317322 0.000358 -0.000089 0.003733 53.353825 0.003733 464.317322
[L_Toe2_02]
126 342.235809 -0.000477 0.000238 0.001187 -72.465096 0.001187 342.235809
127 342.235809 -0.000477 0.000238 0.001188 -72.444046 0.001188 342.235809
128 342.235809 -0.000477 0.000238 0.001188 -72.423035 0.001188 342.235809
[L_Toe2_03]
126 420.210846 -0.000715 0.000000 0.029375 85.420380 0.029375 420.210846
127 420.210846 -0.000715 0.000000 0.029368 85.419350 0.029368 420.210846
128 420.210846 -0.000715 0.000000 0.029361 85.418198 0.029361 420.210846
[L_Toe3_02]
126 329.270111 0.000954 0.000000 0.001178 -80.480331 0.001178 329.270111
127 329.270111 0.000954 0.000000 0.001178 -80.480331 0.001178 329.270111
128 329.270111 0.000954 0.000000 0.001178 -80.480331 0.001178 329.270111
[L_Toe3_03]
126 439.137451 -0.001907 0.000954 -179.996002 78.532913 -179.992493 439.137451
127 439.137451 -0.001907 0.000954 -179.995987 78.557175 -179.992477 439.137451
128 439.137451 -0.001907 0.000954 -179.995972 78.581490 -179.992462 439.137451
[planeLockWeightLeft]
126 -0.000954 0.000238 -0.000305 -0.011826 -0.004376 0.005620 0.001029
127 -0.000954 0.000238 -0.000305 -0.011826 -0.004376 0.005620 0.001029
128 -0.000954 0.000238 -0.000305 -0.011826 -0.004376 0.005620 0.001029
[R_Leg01]
126 761.455627 -0.001907 -0.000358 116.449333 10.939016 49.349728 761.455688
127 761.455627 -0.001907 -0.000358 116.746185 10.272742 48.992970 761.455688
128 761.455627 -0.001907 -0.000358 117.095863 8.576735 47.950829 761.455688
[R_Leg02]
126 1441.140625 0.000000 -0.000238 -0.669155 0.019696 -100.627815 1441.140625
127 1441.140625 0.000000 -0.000238 -0.627120 0.029514 -99.544281 1441.140625
128 1441.140625 0.000000 -0.000238 -0.634155 0.027605 -99.783859 1441.140625
[R_Leg03]
126 1686.963989 0.000954 0.001431 0.059870 -0.026985 126.297386 1686.963989
127 1686.963989 0.000954 0.001431 0.055542 -0.029060 125.970154 1686.963989
128 1686.963989 0.000954 0.001431 0.055523 -0.029097 126.047920 1686.963989
[R_Foot]
126 3041.560059 -30.531288 -11.204481 -2.166079 -24.948502 52.517170 3041.734131
127 3041.560059 -30.531288 -11.204481 -2.159236 -24.950579 52.189148 3041.734131
128 3041.560059 -30.531288 -11.204481 -2.083564 -24.940044 52.102909 3041.734131
[planeAlignerRight]
126 -0.635147 -812.270569 -0.364304 0.000000 -89.960434 -90.005180 812.270874
127 -0.635147 -812.270569 -0.364304 0.000000 -89.960434 -90.005180 812.270874
128 -0.635147 -812.270569 -0.364304 0.000000 -89.960434 -90.005180 812.270874
[R_Toe1_01]
126 -188.383347 -224.864899 21.052242 76.763535 -0.414595 -172.728699 294.101532
127 -188.383347 -224.864899 21.052242 76.763535 -0.414595 -172.728699 294.101532
128 -188.383347 -224.864899 21.052242 76.763527 -0.414595 -172.728699 294.101532
[R_Toe2_01]
126 200.637817 -220.002121 -148.787384 -91.743256 32.873833 -59.182163 332.857574
127 200.637817 -220.002121 -148.787384 -91.743256 32.873833 -59.182163 332.857574
128 200.637817 -220.002121 -148.787384 -91.743248 32.873825 -59.182148 332.857574
[R_Toe3_01]
126 188.606735 -220.092957 191.126343 -73.189255 -8.427759 -73.758507 347.192566
127 188.606735 -220.092957 191.126343 -73.225998 -8.456855 -73.756157 347.192566
128 188.606735 -220.092957 191.126343 -73.225998 -8.456855 -73.756157 347.192566
[planeLockWeightRight]
126 -0.000477 0.000000 0.000000 -0.011823 -0.004379 -0.000027 0.000477
127 -0.000477 0.000000 0.000000 -0.011823 -0.004379 -0.000027 0.000477
128 -0.000477 0.000000 0.000000 -0.011823 -0.004379 -0.000027 0.000477
[R_Toe1_02]
126 413.762085 0.000477 -0.000119 0.000006 -25.434675 -0.000005 413.762085
127 413.762085 0.000477 -0.000119 0.000006 -25.434675 -0.000005 413.762085
128 413.762085 0.000477 -0.000119 0.000006 -25.434675 -0.000005 413.762085
[R_Toe1_03]
126 464.317810 0.000000 0.001088 0.006627 69.599106 0.006627 464.317810
127 464.317810 0.000000 0.001088 0.006627 69.598961 0.006627 464.317810
128 464.317810 0.000000 0.001088 0.006627 69.598862 0.006627 464.317810
[R_Toe2_02]
126 342.234741 -0.000954 0.000238 0.001197 -67.140869 0.001197 342.234741
127 342.234741 -0.000954 0.000238 0.001197 -67.153275 0.001197 342.234741
128 342.234741 -0.000954 0.000238 0.001197 -67.165688 0.001197 342.234741
[R_Toe2_03]
126 420.210846 0.000715 -0.000268 0.008226 73.594398 0.008226 420.210846
127 420.210846 0.000715 -0.000268 0.008226 73.594818 0.008226 420.210846
128 420.210846 0.000715 -0.000268 0.008226 73.595276 0.008226 420.210846
[R_Toe3_02]
126 329.270355 -0.000477 -0.000954 0.001184 -74.495491 0.001184 329.270355
127 329.270355 -0.000477 -0.000954 0.001184 -74.496025 0.001184 329.270355
128 329.270355 -0.000477 -0.000954 0.001184 -74.496574 0.001184 329.270355
[R_Toe3_03]
126 439.137939 0.000238 0.001431 -0.011569 83.287590 -0.008066 439.137939
127 439.137939 0.000238 0.001431 -0.011569 83.287971 -0.008066 439.137939
128 439.137939 0.000238 0.001431 -0.011570 83.288231 -0.008067 439.137939
[Rear_Leg02]
126 1162.777710 -0.029802 0.005960 0.746317 -2.885938 -125.989395 1162.777710
127 1162.777710 -0.029802 0.005960 0.684221 -2.903606 -124.717232 1162.777710
128 1162.777710 -0.029802 0.005960 0.621748 -2.919891 -123.445068 1162.777710
[Rear_Leg03]
126 607.192505 -0.013351 -0.073195 0.010618 -0.004839 65.356293 607.192505
127 607.192505 -0.013351 -0.073195 0.010640 -0.004789 64.818848 607.192505
128 607.192505 -0.013351 -0.073195 0.009611 -0.004093 64.425125 607.192505
[Rear_Leg04]
126 995.874512 -0.020504 -0.011921 -0.042445 -0.017274 60.324730 995.874573
127 995.874512 -0.020504 -0.011921 -0.041481 -0.016201 59.352699 995.874573
128 995.874512 -0.020504 -0.011921 -0.040536 -0.015112 58.380783 995.874573
[Rear_Foot]
126 3096.176270 -0.067472 -0.041425 -150.704498 84.962814 43.244164 3096.176270
127 3096.176270 -0.067472 -0.041425 -149.845795 85.066002 43.831532 3096.176270
128 3096.176270 -0.067472 -0.041425 -148.956375 85.168396 44.449593 3096.176270
[planeAlignerCenter]
126 0.350077 0.966311 -838.790894 0.000009 0.000003 -179.999985 838.791565
127 0.350077 0.966311 -838.790894 0.000009 0.000003 -179.999985 838.791565
128 0.350077 0.966311 -838.790894 0.000009 0.000003 -179.999985 838.791565
[Rear_Toe1_01]
126 0.653352 83.966492 -371.173737 0.328084 41.849670 90.481186 380.553192
127 0.653352 83.966492 -371.173737 0.327108 41.851238 90.479523 380.553192
128 0.653352 83.966492 -371.173737 0.326138 41.852818 90.477875 380.553192
[Rear_Toe2_01]
126 178.200760 -294.826019 -362.060547 -7.196267 34.406261 -66.271294 499.765686
127 178.200760 -294.826019 -362.060547 -7.196267 34.406261 -66.271294 499.765686
128 178.200760 -294.826019 -362.060547 -7.196270 34.406265 -66.271301 499.765686
[Rear_Toe3_01]
126 -153.359680 -308.780914 -362.060852 3.278515 33.469986 -112.584846 499.952881
127 -153.359680 -308.780914 -362.060852 3.278780 33.471149 -112.583771 499.952881
128 -153.359680 -308.780914 -362.060852 3.279043 33.472321 -112.582703 499.952881
[planeLockWeightCenter]
126 -0.000062 0.000238 0.000000 -0.011814 -0.004373 -0.000015 0.000246
127 -0.000062 0.000238 0.000000 -0.011814 -0.004373 -0.000015 0.000246
128 -0.000062 0.000238 0.000000 -0.011814 -0.004373 -0.000015 0.000246
[Rear_Toe1_02]
126 379.707825 0.194073 0.000477 -0.000243 -31.696350 0.006935 379.707855
127 379.707825 0.194073 0.000477 -0.000243 -31.695875 0.006935 379.707855
128 379.707825 0.194073 0.000477 -0.000243 -31.695398 0.006935 379.707855
[Rear_Toe1_03]
126 500.129700 0.165701 0.000119 -0.000103 51.902481 0.007295 500.129761
127 500.129700 0.165701 0.000119 -0.000103 51.902481 0.007295 500.129761
128 500.129700 0.165701 0.000119 -0.000103 51.902481 0.007295 500.129761
[Rear_Toe2_02]
126 340.494507 0.000238 -0.000954 0.001192 -69.926964 0.001192 340.494507
127 340.494507 0.000238 -0.000954 0.001192 -69.902802 0.001192 340.494507
128 340.494507 0.000238 -0.000954 0.001192 -69.878693 0.001192 340.494507
[Rear_Toe2_03]
126 433.103577 0.000000 0.000238 0.006696 69.810326 0.006696 433.103546
127 433.103577 0.000000 0.000238 0.006696 69.810326 0.006696 433.103546
128 433.103577 0.000000 0.000238 0.006696 69.810326 0.006696 433.103546
[Rear_Toe3_02]
126 340.494141 -0.000358 -0.000477 0.008288 -67.274704 -0.009460 340.494171
127 340.494141 -0.000358 -0.000477 0.008288 -67.274704 -0.009460 340.494171
128 340.494141 -0.000358 -0.000477 0.008288 -67.274704 -0.009460 340.494171
[Rear_Toe3_03]
126 433.103577 0.001431 -0.000238 -0.000972 65.954025 -0.004547 433.103546
127 433.103577 0.001431 -0.000238 -0.000972 65.954163 -0.004547 433.103546
128 433.103577 0.001431 -0.000238 -0.000972 65.954300 -0.004547 433.103546
[Back_Bone]
126 1312.175781 -701.934692 0.000954 1.472953 0.094558 -89.282974 1488.125488
127 1312.175781 -701.934692 0.000954 1.473277 0.081144 -88.783661 1488.125488
128 1312.175781 -701.934692 0.000954 1.473669 0.060094 -87.962494 1488.125488
[Head]
126 1406.159424 809.709290 0.001431 0.120060 -0.822486 18.609123 1622.625488
127 1406.159424 809.709290 0.001431 0.151617 -1.015631 16.807051 1622.625488
128 1406.159424 809.709290 0.001431 0.177072 -1.189599 15.218537 1622.625488
[Motor_Bone]
126 1158.364380 -417.834747 0.000477 -0.000105 0.000046 -105.985291 1231.419434
127 1158.364380 -417.834747 0.000477 -0.000105 0.000046 -105.985291 1231.419434
128 1158.364380 -417.834747 0.000477 -0.000105 0.000046 -105.985291 1231.419434
[Ping_Mechanism]
126 1169.680786 -408.790680 -9.869206 0.000103 -0.000053 82.120995 1239.096680
127 1175.129028 -411.827454 -9.059990 0.000103 -0.000053 82.120995 1245.235840
128 1183.188843 -416.266083 -7.859270 0.000103 -0.000053 82.120995 1254.302612
[BN_LookIK]
126 193.241119 1380.371704 -0.002861 0.000000 89.965736 -31.038179 1393.832153
127 193.241119 1380.371704 -0.002861 0.000000 89.965736 -31.038179 1393.832153
128 193.241119 1380.371704 -0.002861 0.000000 89.965736 -31.038179 1393.832153
[bottomMouth]
126 -435.092926 615.759399 -0.000954 -0.000022 0.000016 73.527184 753.966492
127 -435.092926 615.759399 -0.000954 -0.000022 0.000016 73.527184 753.966492
128 -435.092926 615.759399 -0.000954 -0.000022 0.000016 73.527184 753.966492
[L_Mouth01]
126 554.440979 7.658243 838.222046 150.204178 23.759130 109.605339 1005.027161
127 554.440979 7.658243 838.222046 150.204178 23.759130 109.605339 1005.027161
128 554.440979 7.658243 838.222046 150.204178 23.759130 109.605339 1005.027161
[L_mouthFront]
126 551.629089 934.514771 339.150421 0.000081 2.804060 79.119301 1136.941284
127 551.629089 934.514771 339.150421 0.000081 2.804060 79.119301 1136.941284
128 551.629089 934.514771 339.150421 0.000081 2.804060 79.119301 1136.941284
[mouthGun]
126 55.332661 1627.420898 0.000000 0.000023 0.000009 -11.038128 1628.361328
127 55.332661 1627.420898 0.000000 0.000023 0.000009 -11.038128 1628.361328
128 55.332661 1627.420898 0.000000 0.000023 0.000009 -11.038128 1628.361328
[R_Mouth01]
126 554.442383 7.659197 -838.223938 29.795891 -23.759109 109.605331 1005.029541
127 554.442383 7.659197 -838.223938 29.795891 -23.759109 109.605331 1005.029541
128 554.442383 7.659197 -838.223938 29.795891 -23.759109 109.605331 1005.029541
[R_mouthFront]
126 551.629089 934.514282 -339.151367 0.000029 -2.803930 79.119133 1136.941162
127 551.629089 934.514282 -339.151367 0.000029 -2.803930 79.119133 1136.941162
128 551.629089 934.514282 -339.151367 0.000029 -2.803930 79.119133 1136.941162
[TopMouth]
126 461.269867 -56.106091 -0.008583 -0.000059 -0.000268 92.025169 464.669525
127 461.269867 -56.106091 -0.008583 -0.000059 -0.000268 92.025169 464.669525
128 461.269867 -56.106091 -0.008583 -0.000059 -0.000268 92.025169 464.669525
[weapon_bone]
126 -987.239868 1448.372803 0.001431 0.000000 89.965736 -31.038221 1752.833740
127 -987.239868 1448.372803 0.001431 0.000000 89.965736 -31.038221 1752.833740
128 -987.239868 1448.372803 0.001431 0.000000 89.965736 -31.038221 1752.833740
